<svg width="1200" height="800" viewBox="0 0 1200 800" fill="none" xmlns="http://www.w3.org/2000/svg">
  <rect width="1200" height="800" fill="#120A0A"/>
  <rect width="1200" height="800" fill="url(#paint0_radial)"/>
  <rect width="1200" height="800" fill="url(#paint1_radial)"/>
  <rect width="1200" height="800" fill="url(#paint2_linear)"/>
  <circle cx="240" cy="190" r="130" fill="#F97316" fill-opacity="0.42"/>
  <circle cx="875" cy="176" r="120" fill="#D946EF" fill-opacity="0.28"/>
  <circle cx="905" cy="598" r="160" fill="#3B82F6" fill-opacity="0.22"/>
  <path d="M90 563C237 471 339 452 492 514C632 571 726 572 862 503C979 445 1045 425 1128 448V724H90V563Z" fill="#0B0B10"/>
  <path d="M119 547C266 454 356 435 509 497C649 554 744 554 880 486C997 428 1058 410 1145 431" stroke="#FFF6E9" stroke-opacity="0.2" stroke-width="2"/>
  <g opacity="0.8">
    <rect x="162" y="298" width="18" height="132" rx="9" fill="#FFF6E9" fill-opacity="0.18"/>
    <rect x="207" y="252" width="18" height="178" rx="9" fill="#FFF6E9" fill-opacity="0.18"/>
    <rect x="252" y="210" width="18" height="220" rx="9" fill="#FFF6E9" fill-opacity="0.18"/>
    <rect x="297" y="262" width="18" height="168" rx="9" fill="#FFF6E9" fill-opacity="0.18"/>
  </g>
  <g opacity="0.85">
    <rect x="730" y="295" width="18" height="135" rx="9" fill="#FFF6E9" fill-opacity="0.15"/>
    <rect x="775" y="248" width="18" height="182" rx="9" fill="#FFF6E9" fill-opacity="0.15"/>
    <rect x="820" y="198" width="18" height="232" rx="9" fill="#FFF6E9" fill-opacity="0.15"/>
    <rect x="865" y="257" width="18" height="173" rx="9" fill="#FFF6E9" fill-opacity="0.15"/>
  </g>
  <defs>
    <radialGradient id="paint0_radial" cx="0" cy="0" r="1" gradientUnits="userSpaceOnUse" gradientTransform="translate(234 196) rotate(52.281) scale(425.749 474.205)">
      <stop stop-color="#F97316" stop-opacity="0.28"/>
      <stop offset="1" stop-color="#F97316" stop-opacity="0"/>
    </radialGradient>
    <radialGradient id="paint1_radial" cx="0" cy="0" r="1" gradientUnits="userSpaceOnUse" gradientTransform="translate(901 602) rotate(129.785) scale(459.041 518.175)">
      <stop stop-color="#2563EB" stop-opacity="0.24"/>
      <stop offset="1" stop-color="#2563EB" stop-opacity="0"/>
    </radialGradient>
    <linearGradient id="paint2_linear" x1="600" y1="0" x2="600" y2="800" gradientUnits="userSpaceOnUse">
      <stop stop-color="#1C0F11" stop-opacity="0.2"/>
      <stop offset="1" stop-color="#09090B"/>
    </linearGradient>
  </defs>
</svg>
